<?xml version="1.0" encoding="utf-8"?>
<!-- Generator: Adobe Illustrator 24.0.1, SVG Export Plug-In . SVG Version: 6.00 Build 0)  -->
<svg version="1.1" id="图层_1" xmlns="http://www.w3.org/2000/svg" xmlns:xlink="http://www.w3.org/1999/xlink" x="0px" y="0px"
	 viewBox="0 0 64 64" style="enable-background:new 0 0 64 64;" xml:space="preserve">
<style type="text/css">
	.st0{fill:#2C2C2C;}
</style>
<path class="st0" d="M31.3,47c8.3,0,15-6.7,15-15s-6.7-15-15-15s-15,6.7-15,15S23,47,31.3,47z M31.3,51.1
	c-10.5,0-19.1-8.5-19.1-19.1s8.5-19.1,19.1-19.1S50.4,21.5,50.4,32S41.9,51.1,31.3,51.1z M31.3,2h1.4C33.4,2,34,2.6,34,3.4v5.5
	c0,0.8-0.6,1.4-1.4,1.4h-1.4c-0.8,0-1.4-0.6-1.4-1.4V3.4C30,2.6,30.6,2,31.3,2z M52.7,10.3l1,1c0.5,0.5,0.5,1.4,0,1.9l-3.9,3.9
	c-0.5,0.5-1.4,0.5-1.9,0l-1-1c-0.5-0.5-0.5-1.4,0-1.9l3.9-3.9C51.3,9.8,52.2,9.8,52.7,10.3L52.7,10.3z M62,31.3v1.4
	c0,0.8-0.6,1.4-1.4,1.4h-5.5c-0.8,0-1.4-0.6-1.4-1.4v-1.4c0-0.8,0.6-1.4,1.4-1.4h5.5C61.4,30,62,30.6,62,31.3z M53.7,52.7l-1,1
	c-0.5,0.5-1.4,0.5-1.9,0l-3.9-3.9c-0.5-0.5-0.5-1.4,0-1.9l1-1c0.5-0.5,1.4-0.5,1.9,0l3.9,3.9C54.2,51.3,54.2,52.2,53.7,52.7
	L53.7,52.7z M32.7,62h-1.4c-0.8,0-1.4-0.6-1.4-1.4v-5.5c0-0.8,0.6-1.4,1.4-1.4h1.4c0.8,0,1.4,0.6,1.4,1.4v5.5
	C34,61.4,33.4,62,32.7,62z M11.3,53.7l-1-1c-0.5-0.5-0.5-1.4,0-1.9l3.9-3.9c0.5-0.5,1.4-0.5,1.9,0l1,1c0.5,0.5,0.5,1.4,0,1.9
	l-3.9,3.9C12.7,54.2,11.8,54.2,11.3,53.7L11.3,53.7z M2,32.7v-1.4C2,30.6,2.6,30,3.4,30h5.5c0.8,0,1.4,0.6,1.4,1.4v1.4
	c0,0.8-0.6,1.4-1.4,1.4H3.4C2.6,34,2,33.4,2,32.7z M10.3,11.3l1-1c0.5-0.5,1.4-0.5,1.9,0l3.9,3.9c0.5,0.5,0.5,1.4,0,1.9l-1,1
	c-0.5,0.5-1.4,0.5-1.9,0l-3.9-3.9C9.8,12.7,9.8,11.8,10.3,11.3L10.3,11.3z"/>
</svg>
