<?xml version="1.0" standalone="no"?><!DOCTYPE svg PUBLIC "-//W3C//DTD SVG 1.1//EN" "http://www.w3.org/Graphics/SVG/1.1/DTD/svg11.dtd"><svg t="1612239012798" class="icon" viewBox="0 0 1024 1024" version="1.1" xmlns="http://www.w3.org/2000/svg" p-id="3325" xmlns:xlink="http://www.w3.org/1999/xlink" width="64" height="64"><defs><style type="text/css"></style></defs><path d="M576 128a319.509333 319.509333 0 0 0-240.533333 530.368l-201.216 201.216a21.333333 21.333333 0 1 0 30.165333 30.165333l201.216-201.216A319.808 319.808 0 1 0 576 128z m0 597.333333a277.333333 277.333333 0 1 1 277.333333-277.333333 277.653333 277.653333 0 0 1-277.333333 277.333333z" fill="#2c2c2c" p-id="3326"></path><path d="M661.333333 426.666667h-170.666666a21.333333 21.333333 0 0 0 0 42.666666h170.666666a21.333333 21.333333 0 0 0 0-42.666666z" fill="#2c2c2c" p-id="3327"></path></svg>